<?xml version="1.0" encoding="utf-8"?>
<!-- Svg Vector Icons : http://www.onlinewebfonts.com/icon -->
<!DOCTYPE svg PUBLIC "-//W3C//DTD SVG 1.1//EN" "http://www.w3.org/Graphics/SVG/1.1/DTD/svg11.dtd">
<svg version="1.1" xmlns="http://www.w3.org/2000/svg" xmlns:xlink="http://www.w3.org/1999/xlink" x="0px" y="0px" viewBox="0 0 256 256" enable-background="new 0 0 256 256" xml:space="preserve">
<metadata> Svg Vector Icons : http://www.onlinewebfonts.com/icon </metadata>
<g><g><path fill="#000000" d="M182.4,89.9H73.6c-4,0-7.2-3.3-7.2-7.2s3.3-7.2,7.2-7.2h36.3v-7.2c0-4,3.3-7.2,7.2-7.2h21.8c4,0,7.2,3.3,7.2,7.2v7.2h36.3c4,0,7.3,3.3,7.3,7.2S186.4,89.9,182.4,89.9z M120.8,108.1v61.6h-14.5v-61.6H120.8z M149.8,108.1v61.6h-14.5v-61.6H149.8z M91.7,177c0,2,1.6,3.6,3.6,3.6h65.3c2,0,3.6-1.6,3.6-3.6v-76.1h14.5v14.5v18.1v47.2c0,8-6.5,14.5-14.5,14.5H91.7c-8,0-14.5-6.5-14.5-14.5v-47.2v-18.1v-14.5h14.5V177z"/><path fill="#000000" d="M128,10C62.8,10,10,62.8,10,128c0,65.2,52.8,118,118,118c65.2,0,118-52.8,118-118C246,62.8,193.2,10,128,10z M128,233.4c-58.2,0-105.4-47.2-105.4-105.4S69.8,22.6,128,22.6S233.4,69.8,233.4,128S186.2,233.4,128,233.4z"/></g></g>
</svg>